<svg width="132" height="54" viewBox="0 0 132 54" fill="none" xmlns="http://www.w3.org/2000/svg">
<path d="M89.5631 41.482V50.9541C89.5631 52.9194 91.7438 54.1039 93.3905 53.0315L100.938 48.1273C101.678 47.6472 101.678 46.5613 100.938 46.0812L91.8963 40.2077C90.8912 39.5527 89.5586 40.2751 89.5586 41.4776L89.5631 41.482Z" fill="white"/>
<path d="M7.78379 34.5721C7.47868 33.3786 6.70692 32.5037 5.19481 32.5037C2.96927 32.5037 2.03598 34.469 2.03598 36.4612C2.03598 38.4534 2.96927 40.4187 5.19481 40.4187C6.81012 40.4187 7.69854 39.2117 7.84212 37.6951H9.61897C9.4709 40.1854 7.712 41.9039 5.19481 41.9039C2.08085 41.9039 0.21875 39.4315 0.21875 36.4612C0.21875 33.4908 2.08085 31.0185 5.19481 31.0185C7.53701 31.0319 9.38564 32.3287 9.60551 34.5721H7.78828H7.78379Z" fill="white"/>
<path d="M10.8398 37.8925C10.8398 35.5952 12.2218 33.935 14.6403 33.935C17.0588 33.935 18.4408 35.5952 18.4408 37.8925C18.4408 40.1898 17.0588 41.868 14.6403 41.868C12.2218 41.868 10.8398 40.2078 10.8398 37.8925ZM16.7806 37.8925C16.7806 36.5958 16.1255 35.2452 14.6403 35.2452C13.1551 35.2452 12.5 36.6003 12.5 37.8925C12.5 39.1848 13.1551 40.5578 14.6403 40.5578C16.1255 40.5578 16.7806 39.2027 16.7806 37.8925Z" fill="white"/>
<path d="M19.966 34.1369H21.5364V35.1869H21.5813C22.0749 34.442 22.7031 33.935 23.8966 33.935C24.8119 33.935 25.6734 34.3299 26.0055 35.1869C26.5574 34.4151 27.2708 33.935 28.3611 33.935C29.9495 33.935 30.8783 34.635 30.8783 36.4657V41.6616H29.2182V37.2643C29.2182 36.0708 29.1464 35.2407 27.8496 35.2407C26.7279 35.2407 26.2478 35.9811 26.2478 37.2509V41.6616H24.5876V36.8291C24.5876 35.7971 24.269 35.2407 23.2639 35.2407C22.4069 35.2407 21.6172 35.9407 21.6172 37.1925V41.6616H19.957V34.1369H19.966Z" fill="white"/>
<path d="M34.0742 38.3278C34.0742 39.5078 34.7159 40.5533 36.0979 40.5533C37.0581 40.5533 37.6414 40.1315 37.933 39.3014H39.5035C39.14 40.9481 37.7446 41.8635 36.0979 41.8635C33.7422 41.8635 32.4141 40.2168 32.4141 37.906C32.4141 35.7657 33.8095 33.9305 36.053 33.9305C38.4266 33.9305 39.8804 36.0708 39.6067 38.3278H34.0742ZM37.942 37.2374C37.8837 36.1919 37.1703 35.2452 36.0485 35.2452C34.9268 35.2452 34.1146 36.1202 34.0698 37.2374H37.942Z" fill="white"/>
<path d="M48.1046 41.6615H46.5342V40.643H46.5073C46.072 41.5 45.1253 41.8634 44.1785 41.8634C41.8049 41.8634 40.6562 40.1045 40.6562 37.8476C40.6562 35.124 42.2716 33.9305 43.9183 33.9305C44.865 33.9305 45.9105 34.2804 46.422 35.1105H46.4534V31.2697H48.1136V41.6615H48.1046ZM44.3939 40.5532C45.8791 40.5532 46.5028 39.1982 46.5028 37.888C46.5028 36.2278 45.7041 35.2407 44.4208 35.2407C42.8638 35.2407 42.3119 36.6226 42.3119 37.9777C42.3119 39.3328 42.9536 40.5532 44.3939 40.5532Z" fill="white"/>
<path d="M56.6601 41.6616H55.0313V40.6116H54.9999C54.5916 41.3699 53.6897 41.8635 52.8596 41.8635C50.8943 41.8635 50.0508 40.8719 50.0508 38.911V34.1369H51.711V38.7495C51.711 40.0732 52.2494 40.5533 53.1513 40.5533C54.5333 40.5533 54.9999 39.6649 54.9999 38.5027V34.1369H56.6601V41.6616Z" fill="white"/>
<path d="M63.6347 36.6541C63.5046 35.7388 62.836 35.2407 61.9162 35.2407C61.0592 35.2407 59.8477 35.6894 59.8477 37.9778C59.8477 39.2296 60.3996 40.5533 61.8399 40.5533C62.8001 40.5533 63.4687 39.9117 63.6302 38.8348H65.2904C64.9853 40.7866 63.7783 41.8635 61.8399 41.8635C59.4797 41.8635 58.1875 40.1898 58.1875 37.9778C58.1875 35.7657 59.4259 33.9305 61.8982 33.9305C63.6437 33.9305 65.1289 34.8055 65.2904 36.6541H63.6302H63.6347Z" fill="white"/>
<path d="M0.714844 3.49088H7.88952V5.06132H2.53207V7.78491H7.23442V9.2701H2.53207V13.8827H0.714844V3.49088Z" fill="white"/>
<path d="M15.7181 13.8827H14.0893V12.8327H14.0624C13.6541 13.591 12.7522 14.0846 11.9221 14.0846C9.95683 14.0846 9.11328 13.093 9.11328 11.1321V6.358H10.7735V10.9706C10.7735 12.2943 11.3119 12.7744 12.2138 12.7744C13.5958 12.7744 14.0624 11.886 14.0624 10.7238V6.358H15.7226V13.8827H15.7181Z" fill="white"/>
<path d="M17.4654 6.35807H19.0359V7.46636L19.0628 7.49328C19.5564 6.66319 20.4179 6.15616 21.405 6.15616C23.0338 6.15616 24.0703 7.03112 24.0703 8.71822V13.8872H22.4101V9.15795C22.3832 7.97787 21.9165 7.47084 20.9383 7.47084C19.8345 7.47084 19.1211 8.3458 19.1211 9.4496V13.8872H17.4609V6.35807H17.4654Z" fill="white"/>
<path d="M32.9093 13.8827H31.3389V12.8642H31.312C30.8767 13.7212 29.93 14.0846 28.9832 14.0846C26.6096 14.0846 25.4609 12.3257 25.4609 10.0688C25.4609 7.34519 27.0762 6.15165 28.723 6.15165C29.6697 6.15165 30.7152 6.50164 31.2267 7.33173H31.2581V3.49088H32.9183V13.8827H32.9093ZM29.1986 12.7789C30.6838 12.7789 31.3075 11.4239 31.3075 10.1137C31.3075 8.45347 30.5088 7.46634 29.2255 7.46634C27.6685 7.46634 27.1166 8.84833 27.1166 10.2034C27.1166 11.5585 27.7583 12.7789 29.1986 12.7789Z" fill="white"/>
<path d="M41.0166 12.2091C41.0166 12.6174 41.1019 12.7745 41.4115 12.7745C41.5147 12.7745 41.6448 12.7745 41.8198 12.7475V13.8962C41.573 13.9859 41.048 14.0846 40.7698 14.0846C40.1013 14.0846 39.6212 13.8513 39.4911 13.1693C38.836 13.8109 37.7725 14.0846 36.8841 14.0846C35.5291 14.0846 34.3086 13.3578 34.3086 11.886C34.3086 10.0105 35.8072 9.70087 37.2072 9.54383C38.4007 9.32397 39.4641 9.45409 39.4641 8.48041C39.4641 7.6234 38.5757 7.46187 37.9072 7.46187C36.9739 7.46187 36.3188 7.83878 36.247 8.65541H34.5868C34.7034 6.72152 36.3502 6.15167 38.0059 6.15167C39.4776 6.15167 41.0166 6.74844 41.0166 8.33683V12.2091ZM39.3564 10.1137C38.8449 10.4502 38.0462 10.4322 37.3194 10.5669C36.6059 10.6835 35.9643 10.9438 35.9643 11.8187C35.9643 12.5591 36.911 12.7789 37.4943 12.7789C38.2212 12.7789 39.3564 12.402 39.3564 11.3521V10.1137Z" fill="white"/>
<path d="M47.8886 8.87527C47.7585 7.95992 47.0899 7.46187 46.1701 7.46187C45.3131 7.46187 44.1016 7.91057 44.1016 10.1989C44.1016 11.4508 44.6535 12.7745 46.0938 12.7745C47.054 12.7745 47.7226 12.1328 47.8841 11.0559H49.5443C49.2392 13.0078 48.0322 14.0846 46.0938 14.0846C43.7337 14.0846 42.4414 12.411 42.4414 10.1989C42.4414 7.98685 43.6798 6.15167 46.1521 6.15167C47.8976 6.15167 49.3828 7.02663 49.5443 8.87527H47.8841H47.8886Z" fill="white"/>
<path d="M50.9453 3.49088H52.6055V5.06132H50.9453V3.49088ZM50.9453 6.35805H52.6055V13.8827H50.9453V6.35805Z" fill="white"/>
<path d="M54.0625 10.1136C54.0625 7.81625 55.4445 6.15607 57.863 6.15607C60.2814 6.15607 61.6634 7.81625 61.6634 10.1136C61.6634 12.4109 60.2814 14.089 57.863 14.089C55.4445 14.089 54.0625 12.4289 54.0625 10.1136ZM59.9988 10.1136C59.9988 8.81684 59.3437 7.46626 57.8585 7.46626C56.3733 7.46626 55.7182 8.82133 55.7182 10.1136C55.7182 11.4058 56.3733 12.7788 57.8585 12.7788C59.3437 12.7788 59.9988 11.4238 59.9988 10.1136ZM58.0649 3.24402H60.0302L57.9617 5.32598H56.7547L58.0649 3.24402Z" fill="white"/>
<path d="M63.0396 6.35807H64.6101V7.46636L64.637 7.49328C65.1306 6.66319 65.9921 6.15616 66.9792 6.15616C68.608 6.15616 69.6445 7.03112 69.6445 8.71822V13.8872H67.9843V9.15795C67.9529 7.97787 67.4907 7.47084 66.5126 7.47084C65.4088 7.47084 64.6953 8.3458 64.6953 9.4496V13.8872H63.0352V6.35807H63.0396Z" fill="white"/>
<path d="M0.714844 17.4185H8.19464V18.9889H2.53207V21.7125H7.77286V23.1977H2.53207V26.2399H8.29784V27.8103H0.714844V17.4185Z" fill="white"/>
<path d="M16.6789 27.8103H15.1084V26.7918H15.0815C14.6463 27.6488 13.6995 28.0122 12.7527 28.0122C10.3791 28.0122 9.23047 26.2533 9.23047 23.9964C9.23047 21.2728 10.8458 20.0792 12.4925 20.0792C13.4393 20.0792 14.4847 20.4292 14.9962 21.2593H15.0276V17.4185H16.6878V27.8103H16.6789ZM12.9681 26.702C14.4533 26.702 15.077 25.3469 15.077 24.0367C15.077 22.3766 14.2783 21.3894 12.995 21.3894C11.4381 21.3894 10.8862 22.7714 10.8862 24.1265C10.8862 25.4816 11.5278 26.702 12.9681 26.702Z" fill="white"/>
<path d="M25.0351 27.8103H23.4063V26.7604H23.3749C22.9666 27.5187 22.0647 28.0122 21.2346 28.0122C19.2693 28.0122 18.4258 27.0206 18.4258 25.0598V20.2856H20.086V24.8983C20.086 26.2219 20.6244 26.702 21.5263 26.702C22.9083 26.702 23.3749 25.8136 23.3749 24.6515V20.2856H25.0351V27.8103Z" fill="white"/>
<path d="M31.8066 22.8028C31.6764 21.8874 31.0079 21.3894 30.0881 21.3894C29.231 21.3894 28.0196 21.8381 28.0196 24.1264C28.0196 25.3783 28.5715 26.702 30.0118 26.702C30.972 26.702 31.6405 26.0603 31.8021 24.9835H33.4623C33.1571 26.9353 31.9502 28.0122 30.0118 28.0122C27.6516 28.0122 26.3594 26.3385 26.3594 24.1264C26.3594 21.9144 27.5978 20.0792 30.0701 20.0792C31.8155 20.0792 33.3007 20.9542 33.4623 22.8028H31.8021H31.8066Z" fill="white"/>
<path d="M41.0635 26.1366C41.0635 26.5449 41.1488 26.702 41.4584 26.702C41.5616 26.702 41.6917 26.702 41.8667 26.675V27.8237C41.6199 27.9135 41.0949 28.0122 40.8167 28.0122C40.1482 28.0122 39.6681 27.7788 39.5379 27.0968C38.8828 27.7385 37.8194 28.0122 36.931 28.0122C35.5759 28.0122 34.3555 27.2853 34.3555 25.8135C34.3555 23.938 35.8541 23.6284 37.2541 23.4713C38.4476 23.2515 39.511 23.3861 39.511 22.4079C39.511 21.5509 38.6226 21.3894 37.954 21.3894C37.0207 21.3894 36.3656 21.7663 36.2938 22.5829H34.6337C34.7503 20.649 36.397 20.0792 38.0527 20.0792C39.5245 20.0792 41.0635 20.676 41.0635 22.2644V26.1366ZM39.4033 24.0412C38.8918 24.3777 38.0931 24.3598 37.3662 24.4944C36.6528 24.611 36.0112 24.8713 36.0112 25.7462C36.0112 26.4866 36.9579 26.7065 37.5412 26.7065C38.2681 26.7065 39.4033 26.3296 39.4033 25.2796V24.0412Z" fill="white"/>
<path d="M47.873 22.8028C47.7428 21.8874 47.0743 21.3894 46.1545 21.3894C45.2974 21.3894 44.086 21.8381 44.086 24.1264C44.086 25.3783 44.6379 26.702 46.0782 26.702C47.0384 26.702 47.707 26.0603 47.8685 24.9835H49.5287C49.2236 26.9353 48.0166 28.0122 46.0782 28.0122C43.718 28.0122 42.4258 26.3385 42.4258 24.1264C42.4258 21.9144 43.6642 20.0792 46.1365 20.0792C47.8819 20.0792 49.3671 20.9542 49.5287 22.8028H47.8685H47.873Z" fill="white"/>
<path d="M50.875 17.4185H52.5352V18.9889H50.875V17.4185ZM50.875 20.2856H52.5352V27.8103H50.875V20.2856Z" fill="white"/>
<path d="M53.9297 24.0412C53.9297 21.7438 55.3117 20.0836 57.7302 20.0836C60.1486 20.0836 61.5306 21.7438 61.5306 24.0412C61.5306 26.3385 60.1486 28.0166 57.7302 28.0166C55.3117 28.0166 53.9297 26.3564 53.9297 24.0412ZM59.866 24.0412C59.866 22.7444 59.2109 21.3938 57.7257 21.3938C56.2405 21.3938 55.5854 22.7489 55.5854 24.0412C55.5854 25.3334 56.2405 26.7064 57.7257 26.7064C59.2109 26.7064 59.866 25.3514 59.866 24.0412Z" fill="white"/>
<path d="M62.8482 20.2856H64.4187V21.3938L64.4456 21.4208C64.9392 20.5907 65.8007 20.0836 66.7878 20.0836C68.4166 20.0836 69.4531 20.9586 69.4531 22.6457V27.8147H67.7929V23.0854C67.766 21.9054 67.2993 21.3983 66.3212 21.3983C65.2174 21.3983 64.5039 22.2733 64.5039 23.3771V27.8147H62.8438V20.29L62.8482 20.2856Z" fill="white"/>
<path d="M77.4502 26.1366C77.4502 26.5449 77.5355 26.702 77.8451 26.702C77.9483 26.702 78.0784 26.702 78.2534 26.675V27.8237C78.0066 27.9135 77.4816 28.0122 77.2034 28.0122C76.5349 28.0122 76.0548 27.7788 75.9246 27.0968C75.2695 27.7385 74.2061 28.0122 73.3177 28.0122C71.9626 28.0122 70.7422 27.2853 70.7422 25.8135C70.7422 23.938 72.2408 23.6284 73.6408 23.4713C74.8343 23.2515 75.8977 23.3861 75.8977 22.4079C75.8977 21.5509 75.0093 21.3894 74.3407 21.3894C73.4075 21.3894 72.7524 21.7663 72.6806 22.5829H71.0204C71.137 20.649 72.7838 20.0792 74.4395 20.0792C75.9112 20.0792 77.4502 20.676 77.4502 22.2644V26.1366ZM75.79 24.0412C75.2785 24.3777 74.4798 24.3598 73.7529 24.4944C73.0395 24.611 72.3979 24.8713 72.3979 25.7462C72.3979 26.4866 73.3446 26.7065 73.9279 26.7065C74.6548 26.7065 75.79 26.3296 75.79 25.2796V24.0412Z" fill="white"/>
<path d="M79.2305 17.4185H80.8906V27.8103H79.2305V17.4185Z" fill="white"/>
<path d="M12.4887 50.622H2.04299C1.30947 50.622 0.714844 51.2167 0.714844 51.9502V52.1072C0.714844 52.8407 1.30947 53.4354 2.04299 53.4354H12.4887C13.2222 53.4354 13.8168 52.8407 13.8168 52.1072V51.9502C13.8168 51.2167 13.2222 50.622 12.4887 50.622Z" fill="white"/>
<path d="M107.407 43.9319L115.371 38.7629C116.295 38.1617 116.295 36.8111 115.371 36.2143L92.3932 21.2906C91.1727 20.5009 89.5664 21.3759 89.5664 22.8252V32.7638C89.5664 33.3426 89.8581 33.8811 90.3427 34.1952L105.334 43.9319C105.966 44.3402 106.778 44.3402 107.411 43.9319H107.407Z" fill="white"/>
<path d="M115.707 17.3645V30.9107C115.707 31.2338 115.869 31.5299 116.138 31.7049L120.67 34.6483C120.984 34.8503 121.388 34.8503 121.702 34.6483L129.792 29.3941C131.465 28.3038 131.465 25.8539 129.792 24.7635L117.17 16.5658C116.537 16.1575 115.707 16.6107 115.707 17.36V17.3645Z" fill="white"/>
<path d="M102.957 9.21618V22.3316C102.957 22.8386 103.213 23.3143 103.639 23.5925L109.934 27.6801C110.612 28.1198 111.509 27.6352 111.509 26.8231V13.4474C111.509 13.1019 111.334 12.7788 111.047 12.5904L104.536 8.35917C103.859 7.91944 102.962 8.40404 102.962 9.21618H102.957Z" fill="white"/>
<path d="M98.4294 4.39714L93.3232 1.08126C91.7034 0.0268193 89.5586 1.19343 89.5586 3.12283V13.7615C89.5586 14.1877 89.774 14.5826 90.1284 14.8114L97.3749 19.5182C97.9717 19.9041 98.7569 19.4779 98.7569 18.7689V5.01185C98.7569 4.76507 98.6313 4.53623 98.4249 4.40162L98.4294 4.39714Z" fill="white"/>
</svg>
