<svg width="27" height="28" viewBox="0 0 27 28" fill="none" xmlns="http://www.w3.org/2000/svg">
<path d="M6.20265 27.5391H0.770654V10.0749H6.20265V27.5391ZM3.45745 7.73856C1.7636 7.73856 0.361794 6.27835 0.361794 4.52609C0.361794 2.13134 2.93177 0.612715 5.03448 1.8393C6.02742 2.36497 6.61151 3.41633 6.61151 4.52609C6.61151 6.27835 5.20971 7.73856 3.45745 7.73856ZM26.4704 27.5391H21.0968V19.0698C21.0968 17.0255 21.0384 14.4555 18.2348 14.4555C15.4312 14.4555 15.0223 16.6167 15.0223 18.8946V27.5391H9.59035V10.0749H14.7887V12.4697H14.8471C15.6064 11.1263 17.3587 9.66604 19.9871 9.66604C25.4775 9.66604 26.5288 13.2874 26.5288 17.9601V27.5391H26.4704Z" fill="white"/>
</svg>
