<svg width="43" height="38" viewBox="0 0 43 38" fill="none" xmlns="http://www.w3.org/2000/svg">
<path d="M21.3549 0.701063H29.5137C30.0965 0.701063 30.6793 1.28384 30.6793 1.86661V5.36326C30.6793 6.01888 30.0965 6.52881 29.5137 6.52881H23.686V7.69435L30.2422 12.3565H37.6726C40.2222 12.3565 42.3348 14.4691 42.3348 17.0187V33.3364C42.3348 35.9589 40.2222 37.9986 37.6726 37.9986H24.8515V29.8398C24.8515 27.9458 23.2489 26.3431 21.3549 26.3431C19.388 26.3431 17.8582 27.9458 17.8582 29.8398V37.9986H5.03719C2.41471 37.9986 0.375 35.9589 0.375 33.3364V17.0187C0.375 14.4691 2.41471 12.3565 5.03719 12.3565H12.3947L19.0238 7.69435V3.03216C19.0238 1.79376 20.0436 0.701063 21.3549 0.701063ZM21.3549 14.6876C19.388 14.6876 17.8582 16.2903 17.8582 18.1843C17.8582 20.1512 19.388 21.6809 21.3549 21.6809C23.2489 21.6809 24.8515 20.1512 24.8515 18.1843C24.8515 16.2903 23.2489 14.6876 21.3549 14.6876ZM6.20274 17.0187C5.54712 17.0187 5.03719 17.6015 5.03719 18.1843V22.8465C5.03719 23.5021 5.54712 24.012 6.20274 24.012H8.53384C9.11662 24.012 9.69939 23.5021 9.69939 22.8465V18.1843C9.69939 17.6015 9.11662 17.0187 8.53384 17.0187H6.20274ZM33.0104 22.8465C33.0104 23.5021 33.5203 24.012 34.1759 24.012H36.507C37.0898 24.012 37.6726 23.5021 37.6726 22.8465V18.1843C37.6726 17.6015 37.0898 17.0187 36.507 17.0187H34.1759C33.5203 17.0187 33.0104 17.6015 33.0104 18.1843V22.8465ZM6.20274 26.3431C5.54712 26.3431 5.03719 26.9259 5.03719 27.5087V32.1709C5.03719 32.8265 5.54712 33.3364 6.20274 33.3364H8.53384C9.11662 33.3364 9.69939 32.8265 9.69939 32.1709V27.5087C9.69939 26.9259 9.11662 26.3431 8.53384 26.3431H6.20274ZM34.1759 26.3431C33.5203 26.3431 33.0104 26.9259 33.0104 27.5087V32.1709C33.0104 32.8265 33.5203 33.3364 34.1759 33.3364H36.507C37.0898 33.3364 37.6726 32.8265 37.6726 32.1709V27.5087C37.6726 26.9259 37.0898 26.3431 36.507 26.3431H34.1759Z" fill="white"/>
</svg>
