<svg width="33" height="23" viewBox="0 0 33 23" fill="none" xmlns="http://www.w3.org/2000/svg">
<path d="M32.1899 3.6731C32.8908 6.12626 32.8908 11.383 32.8908 11.383C32.8908 11.383 32.8908 16.5814 32.1899 19.093C31.8395 20.4948 30.7297 21.5461 29.3863 21.8966C26.8748 22.5391 16.9453 22.5391 16.9453 22.5391C16.9453 22.5391 6.95745 22.5391 4.44588 21.8966C3.10248 21.5461 1.99272 20.4948 1.64227 19.093C0.941366 16.5814 0.941366 11.383 0.941366 11.383C0.941366 11.383 0.941366 6.12626 1.64227 3.6731C1.99272 2.27129 3.10248 1.16153 4.44588 0.811077C6.95745 0.110175 16.9453 0.110175 16.9453 0.110175C16.9453 0.110175 26.8748 0.110175 29.3863 0.811077C30.7297 1.16153 31.8395 2.27129 32.1899 3.6731ZM13.6744 16.1141L21.9684 11.383L13.6744 6.65193V16.1141Z" fill="white"/>
</svg>
