<svg version="1.2" xmlns="http://www.w3.org/2000/svg" viewBox="0 0 46 61" width="46" height="61">
	<title>Path 357</title>
	<style>
		.s0 { fill: #ffffff } 
	</style>
	<path id="Path 357" fill-rule="evenodd" class="s0" d="m26.8 0.5v15c0 2.1 1.6 3.7 3.7 3.7h14.9v33.7c0 4.2-3.3 7.4-7.4 7.4h-29.9c-4.2 0-7.5-3.2-7.5-7.4v-44.9c0-4.1 3.3-7.5 7.5-7.5zm-7.5 43c0 1.1 0.8 1.9 1.9 1.9h2.8c3 0 5.6-2.5 5.6-5.6v-7.5c0-3-2.6-5.6-5.6-5.6h-2.8c-1.1 0-1.9 0.9-1.9 1.9zm-11.2-16.9c-1.1 0-1.9 1-1.9 1.9v15c0 1 0.8 1.8 1.9 1.8 0.9 0 1.8-0.8 1.8-1.8v-3.8h1c3.5 0 6.5-2.9 6.5-6.5 0-3.5-3-6.6-6.5-6.6zm2.8 9.4h-1v-5.6h1c1.5 0 2.8 1.3 2.8 2.8 0 1.6-1.3 2.8-2.8 2.8zm12.1-5.6h1c0.9 0 1.8 0.9 1.8 1.9v7.4c0 1.1-0.9 1.9-1.8 1.9h-1zm11.2-3.7c-1 0-1.8 0.9-1.8 1.8v15c0 1 0.8 1.9 1.8 1.9 1 0 1.9-0.9 1.9-1.9v-5.6h3.8c0.9 0 1.8-0.8 1.8-1.9 0-0.9-0.9-1.9-1.8-1.9h-3.8v-3.7h3.8c0.9 0 1.8-0.8 1.8-1.9 0-0.9-0.9-1.8-1.8-1.8zm-3.8-26.2l15 14.9h-15z"/>
</svg>