<svg width="31" height="32" viewBox="0 0 31 32" fill="none" xmlns="http://www.w3.org/2000/svg">
<path d="M9.26461 23.5645L7.45395 21.7539C6.98668 21.2866 6.81145 20.5857 6.98668 19.8848C7.1619 19.3591 7.39554 18.7166 7.68758 17.8989H1.55468C1.02901 17.8989 0.561737 17.6653 0.328103 17.198C0.0360597 16.7891 0.0360597 16.2635 0.328103 15.7962L3.36535 10.6562C4.12466 9.37124 5.52646 8.55352 6.98668 8.55352H11.8346C11.9514 8.31989 12.0682 8.14466 12.2434 7.91103C17.033 0.843593 24.1588 0.609958 28.3642 1.42768C29.0651 1.5445 29.5908 2.07017 29.7076 2.77108C30.5253 6.97649 30.2917 14.1023 23.2243 18.8918C22.9906 19.0671 22.757 19.1839 22.5818 19.3007V24.1486C22.5818 25.6088 21.764 27.0106 20.4791 27.7699L15.3391 30.8072C14.8718 31.0408 14.3462 31.0992 13.9373 30.8072C13.47 30.5736 13.2364 30.1063 13.2364 29.5806V23.3309C12.3603 23.6229 11.6594 23.8566 11.1337 24.0318C10.4912 24.2654 9.73188 24.0902 9.26461 23.5645ZM22.5818 10.8899C23.8668 10.8899 24.9181 9.89692 24.9181 8.55352C24.9181 7.26853 23.8668 6.21718 22.5818 6.21718C21.2384 6.21718 20.2454 7.26853 20.2454 8.55352C20.2454 9.89692 21.2384 10.8899 22.5818 10.8899Z" fill="white"/>
</svg>
