<svg width="47" height="34" viewBox="0 0 47 34" fill="none" xmlns="http://www.w3.org/2000/svg">
<path d="M45.7586 8.42521C46.487 8.7166 46.9969 9.37222 46.9969 10.1007C46.9969 10.902 46.487 11.5576 45.7586 11.849L25.2158 19.2065C24.1959 19.5708 23.1032 19.5708 22.0833 19.2065L8.24245 14.253C7.36829 15.2 6.71267 16.3655 6.42128 17.6768C6.93121 18.041 7.36829 18.6966 7.36829 19.4251C7.36829 20.1535 7.00406 20.8092 6.49413 21.2462L8.24245 32.1004C8.38815 32.8289 7.80537 33.4117 7.14975 33.4117H2.85179C2.19617 33.4117 1.6134 32.8289 1.75909 32.1004L3.50741 21.2462C2.99748 20.8092 2.7061 20.1535 2.7061 19.4251C2.7061 18.4781 3.28887 17.6768 4.09019 17.3125C4.38157 15.8556 5.03719 14.5443 5.91136 13.3788L1.54055 11.849C0.812081 11.5576 0.375 10.902 0.375 10.1007C0.375 9.37222 0.812081 8.7166 1.54055 8.42521L22.0105 1.06769C23.0304 0.703454 24.1231 0.703454 25.1429 1.06769L45.7586 8.42521ZM25.9442 21.3919L36.5799 17.6039L37.6726 28.021C37.6726 31.0077 31.3349 33.4117 23.686 33.4117C15.8914 33.4117 9.69939 31.0077 9.69939 28.021L10.7192 17.6039L21.3549 21.3919C22.0833 21.6833 22.8847 21.7562 23.686 21.7562C24.4144 21.7562 25.2158 21.6833 25.9442 21.3919Z" fill="white"/>
</svg>
