<svg width="27" height="27" viewBox="0 0 27 27" fill="none" xmlns="http://www.w3.org/2000/svg">
<path d="M13.4453 6.60763C17.1251 6.60763 20.1623 9.64488 20.1623 13.3246C20.1623 17.0628 17.1251 20.0416 13.4453 20.0416C9.70716 20.0416 6.72833 17.0628 6.72833 13.3246C6.72833 9.64488 9.70716 6.60763 13.4453 6.60763ZM13.4453 17.7053C15.8401 17.7053 17.7675 15.7778 17.7675 13.3246C17.7675 10.9299 15.8401 9.00238 13.4453 9.00238C10.9922 9.00238 9.06467 10.9299 9.06467 13.3246C9.06467 15.7778 11.0506 17.7053 13.4453 17.7053ZM21.973 6.374C21.973 5.49787 21.2721 4.79697 20.3959 4.79697C19.5198 4.79697 18.8189 5.49787 18.8189 6.374C18.8189 7.25013 19.5198 7.95103 20.3959 7.95103C21.2721 7.95103 21.973 7.25013 21.973 6.374ZM26.412 7.95103C26.5288 10.1121 26.5288 16.5955 26.412 18.7566C26.2952 20.8593 25.8279 22.67 24.3093 24.247C22.7907 25.7656 20.9216 26.2329 18.8189 26.3497C16.6578 26.4665 10.1744 26.4665 8.01332 26.3497C5.91061 26.2329 4.09994 25.7656 2.52291 24.247C1.00429 22.67 0.53702 20.8593 0.420203 18.7566C0.303386 16.5955 0.303386 10.1121 0.420203 7.95103C0.53702 5.84832 1.00429 3.97925 2.52291 2.46063C4.09994 0.942003 5.91061 0.474735 8.01332 0.357918C10.1744 0.241101 16.6578 0.241101 18.8189 0.357918C20.9216 0.474735 22.7907 0.942003 24.3093 2.46063C25.8279 3.97925 26.2952 5.84832 26.412 7.95103ZM23.6084 21.0345C24.3093 19.3407 24.1341 15.2521 24.1341 13.3246C24.1341 11.4555 24.3093 7.36695 23.6084 5.61469C23.1411 4.50493 22.265 3.57039 21.1552 3.16153C19.403 2.46063 15.3144 2.63585 13.4453 2.63585C11.5178 2.63585 7.42923 2.46063 5.73538 3.16153C4.56721 3.6288 3.69108 4.50493 3.22381 5.61469C2.52291 7.36695 2.69814 11.4555 2.69814 13.3246C2.69814 15.2521 2.52291 19.3407 3.22381 21.0345C3.69108 22.2027 4.56721 23.0788 5.73538 23.5461C7.42923 24.247 11.5178 24.0718 13.4453 24.0718C15.3144 24.0718 19.403 24.247 21.1552 23.5461C22.265 23.0788 23.1995 22.2027 23.6084 21.0345Z" fill="white"/>
</svg>
