<svg width="39" height="27" viewBox="0 0 39 27" fill="none" xmlns="http://www.w3.org/2000/svg">
<path d="M11.6619 3.63179C11.6619 5.44246 10.1433 6.90267 8.39102 6.90267C6.58036 6.90267 5.12014 5.44246 5.12014 3.63179C5.12014 1.87954 6.58036 0.360913 8.39102 0.360913C10.1433 0.360913 11.6619 1.87954 11.6619 3.63179ZM13.0637 9.99833C11.3115 11.5169 10.2601 13.7949 10.2601 16.248C10.2601 18.2923 10.9026 20.103 12.1292 21.5632V22.7898C12.1292 23.8412 11.253 24.6589 10.2601 24.6589H6.52195C5.4706 24.6589 4.65288 23.8412 4.65288 22.7898V21.2712C2.43335 20.2198 0.914728 17.9419 0.914728 15.3135C0.914728 11.7506 3.83516 8.77175 7.45649 8.77175H9.32556C10.669 8.77175 12.0124 9.23901 13.0637 9.99833ZM4.65288 12.8603C4.06879 13.5028 3.71834 14.379 3.71834 15.3135C3.71834 16.3065 4.06879 17.1826 4.65288 17.8251V12.8603ZM27.0818 22.7898V21.5632C28.2499 20.103 28.9508 18.2923 28.9508 16.248C28.9508 13.7949 27.8411 11.5169 26.0888 9.99833C27.1402 9.23901 28.4836 8.77175 29.8854 8.77175H31.7544C35.3174 8.77175 38.2962 11.7506 38.2962 15.3135C38.2962 17.9419 36.7192 20.2198 34.5581 21.2712V22.7898C34.5581 23.8412 33.6819 24.6589 32.689 24.6589H28.9508C27.8995 24.6589 27.0818 23.8412 27.0818 22.7898ZM34.5581 17.8251C35.0837 17.1826 35.4926 16.3065 35.4926 15.3135C35.4926 14.379 35.0837 13.5028 34.5581 12.8603V17.8251ZM34.0908 3.63179C34.0908 5.44246 32.5722 6.90267 30.8199 6.90267C29.0092 6.90267 27.549 5.44246 27.549 3.63179C27.549 1.87954 29.0092 0.360913 30.8199 0.360913C32.5722 0.360913 34.0908 1.87954 34.0908 3.63179ZM15.8673 4.09906C15.8673 2.05476 17.5028 0.360913 19.6055 0.360913C21.6498 0.360913 23.3436 2.05476 23.3436 4.09906C23.3436 6.20177 21.6498 7.83721 19.6055 7.83721C17.5028 7.83721 15.8673 6.20177 15.8673 4.09906ZM27.0818 16.248C27.0818 18.8764 25.5047 21.1544 23.3436 22.2057V24.6589C23.3436 25.7102 22.4675 26.5279 21.4745 26.5279H17.7364C16.685 26.5279 15.8673 25.7102 15.8673 24.6589V22.2057C13.6478 21.1544 12.1292 18.8764 12.1292 16.248C12.1292 12.6851 15.0496 9.70628 18.6709 9.70628H20.54C24.1029 9.70628 27.0818 12.6851 27.0818 16.248ZM15.8673 18.7596V13.7949C15.2832 14.4374 14.9328 15.3135 14.9328 16.248C14.9328 17.241 15.2832 18.1171 15.8673 18.7596ZM23.3436 13.7949V18.7596C23.8693 18.0587 24.2782 17.241 24.2782 16.248C24.2782 15.3135 23.8693 14.4374 23.3436 13.7949Z" fill="white"/>
</svg>
