<svg width="333" height="424" viewBox="0 0 333 424" fill="none" xmlns="http://www.w3.org/2000/svg">
<path d="M0.200002 327.391V403.185C0.200002 418.912 17.6495 428.39 30.8264 419.809L91.2174 380.566C97.1416 376.724 97.1416 368.035 91.2174 364.193L18.8702 317.195C10.8277 311.953 0.164062 317.733 0.164062 327.356L0.200002 327.391Z" fill="white"/>
<path d="M142.986 346.995L206.716 305.633C214.112 300.822 214.112 290.015 206.716 285.24L22.8502 165.822C13.0842 159.503 0.230469 166.504 0.230469 178.101V257.629C0.230469 262.261 2.56423 266.569 6.4419 269.083L126.398 346.995C131.461 350.262 137.959 350.262 143.022 346.995H142.986Z" fill="white"/>
<path d="M209.418 134.405V242.801C209.418 245.386 210.71 247.755 212.865 249.156L249.128 272.709C251.641 274.325 254.873 274.325 257.386 272.709L322.122 230.665C335.514 221.94 335.514 202.336 322.122 193.612L221.123 128.014C216.06 124.747 209.418 128.373 209.418 134.37V134.405Z" fill="white"/>
<path d="M107.371 69.2034V174.152C107.371 178.209 109.418 182.015 112.829 184.241L163.202 216.95C168.624 220.468 175.805 216.591 175.805 210.092V103.061C175.805 100.297 174.404 97.7114 172.107 96.2034L120.009 62.3456C114.588 58.827 107.407 62.7047 107.407 69.2034H107.371Z" fill="white"/>
<path d="M71.1469 30.6418L30.2878 4.10853C17.3263 -4.32899 0.164062 5.00613 0.164062 20.445V105.574C0.164062 108.985 1.88749 112.145 4.72393 113.976L62.7094 151.639C67.4846 154.727 73.7679 151.316 73.7679 145.643V35.5607C73.7679 33.586 72.7626 31.7549 71.111 30.6777L71.1469 30.6418Z" fill="white"/>
</svg>
