<svg width="29" height="37" viewBox="0 0 29 37" fill="none" xmlns="http://www.w3.org/2000/svg">
<path d="M0.987394 28.0357V34.4036C0.987394 35.7248 2.45343 36.5212 3.56049 35.8002L8.63428 32.5032C9.13201 32.1804 9.13201 31.4504 8.63428 31.1276L2.55599 27.179C1.88028 26.7386 0.984375 27.2243 0.984375 28.0327L0.987394 28.0357Z" fill="#00B1E9"/>
<path d="M12.982 29.6831L18.3363 26.2081C18.9577 25.8039 18.9577 24.8959 18.3363 24.4947L2.88869 14.4618C2.0682 13.9308 0.988281 14.5191 0.988281 15.4934V22.175C0.988281 22.5641 1.18435 22.9261 1.51014 23.1373L11.5883 29.6831C12.0137 29.9576 12.5597 29.9576 12.985 29.6831H12.982Z" fill="#00B1E9"/>
<path d="M18.5664 11.8219V20.9288C18.5664 21.146 18.675 21.3451 18.856 21.4627L21.9027 23.4416C22.1138 23.5773 22.3853 23.5773 22.5965 23.4416L28.0353 19.9092C29.1604 19.1762 29.1604 17.5292 28.0353 16.7962L19.5498 11.285C19.1245 11.0105 18.5664 11.3151 18.5664 11.8189V11.8219Z" fill="#00B1E9"/>
<path d="M9.99219 6.34402V15.1613C9.99219 15.5022 10.1641 15.8219 10.4507 16.009L14.6829 18.757C15.1384 19.0526 15.7417 18.7269 15.7417 18.1809V9.1886C15.7417 8.95633 15.624 8.73914 15.431 8.61245L11.054 5.76786C10.5985 5.47224 9.99521 5.79803 9.99521 6.34402H9.99219Z" fill="#00B1E9"/>
<path d="M6.94805 3.10398L3.51524 0.874766C2.42627 0.165883 0.984375 0.950179 0.984375 2.24728V9.39947C0.984375 9.68604 1.12917 9.95149 1.36747 10.1053L6.23916 13.2697C6.64036 13.5291 7.16825 13.2425 7.16825 12.7659V3.51724C7.16825 3.35133 7.08379 3.19749 6.94503 3.10699L6.94805 3.10398Z" fill="#00B1E9"/>
</svg>
