<svg width="29" height="36" viewBox="0 0 29 36" fill="none" xmlns="http://www.w3.org/2000/svg">
<path d="M0.959962 27.4237V33.6041C0.959962 34.8864 2.38283 35.6593 3.45729 34.9596L8.38169 31.7596C8.86476 31.4463 8.86476 30.7378 8.38169 30.4246L2.48237 26.5922C1.82656 26.1648 0.957031 26.6361 0.957031 27.4207L0.959962 27.4237Z" fill="#83B719"/>
<path d="M12.6015 29.0222L17.7982 25.6494C18.4013 25.2571 18.4013 24.3759 17.7982 23.9865L2.80539 14.249C2.00906 13.7337 0.960938 14.3046 0.960938 15.2502V21.7351C0.960938 22.1128 1.15124 22.4641 1.46743 22.669L11.2489 29.0222C11.6617 29.2886 12.1916 29.2886 12.6044 29.0222H12.6015Z" fill="#83B719"/>
<path d="M18.0156 11.6872V20.526C18.0156 20.7368 18.121 20.93 18.2967 21.0442L21.2537 22.9647C21.4586 23.0965 21.7221 23.0965 21.927 22.9647L27.2057 19.5364C28.2977 18.825 28.2977 17.2264 27.2057 16.515L18.9701 11.1661C18.5573 10.8997 18.0156 11.1954 18.0156 11.6843V11.6872Z" fill="#83B719"/>
<path d="M9.69531 6.37052V14.9282C9.69531 15.259 9.86219 15.5694 10.1403 15.7509L14.2479 18.418C14.69 18.7049 15.2755 18.3888 15.2755 17.8588V9.13135C15.2755 8.90592 15.1613 8.69512 14.974 8.57216L10.7259 5.81133C10.2838 5.52442 9.69824 5.84061 9.69824 6.37052H9.69531Z" fill="#83B719"/>
<path d="M6.74511 3.22609L3.41338 1.06251C2.35647 0.374501 0.957031 1.1357 0.957031 2.39462V9.33621C0.957031 9.61434 1.09756 9.87198 1.32885 10.0213L6.05709 13.0925C6.44648 13.3442 6.95883 13.0661 6.95883 12.6035V3.62718C6.95883 3.46616 6.87685 3.31685 6.74218 3.22901L6.74511 3.22609Z" fill="#83B719"/>
</svg>
