<svg width="292" height="119" viewBox="0 0 292 119" fill="none" xmlns="http://www.w3.org/2000/svg">
<path d="M16.9616 76.2984C16.2816 73.6384 14.5616 71.6884 11.1916 71.6884C6.23156 71.6884 4.15156 76.0684 4.15156 80.5084C4.15156 84.9484 6.23156 89.3284 11.1916 89.3284C14.7916 89.3284 16.7716 86.6384 17.0916 83.2584H21.0516C20.7216 88.8084 16.8016 92.6384 11.1916 92.6384C4.25156 92.6384 0.101562 87.1284 0.101562 80.5084C0.101562 73.8884 4.25156 68.3784 11.1916 68.3784C16.4116 68.4084 20.5316 71.2984 21.0216 76.2984H16.9716H16.9616Z" fill="#00447A"/>
<path d="M23.7734 83.6984C23.7734 78.5784 26.8534 74.8784 32.2434 74.8784C37.6334 74.8784 40.7134 78.5784 40.7134 83.6984C40.7134 88.8184 37.6334 92.5584 32.2434 92.5584C26.8534 92.5584 23.7734 88.8584 23.7734 83.6984ZM37.0134 83.6984C37.0134 80.8084 35.5534 77.7984 32.2434 77.7984C28.9334 77.7984 27.4734 80.8184 27.4734 83.6984C27.4734 86.5784 28.9334 89.6384 32.2434 89.6384C35.5534 89.6384 37.0134 86.6184 37.0134 83.6984Z" fill="#00447A"/>
<path d="M44.1098 75.3284H47.6098V77.6684H47.7098C48.8098 76.0084 50.2098 74.8784 52.8698 74.8784C54.9098 74.8784 56.8298 75.7584 57.5698 77.6684C58.7998 75.9484 60.3898 74.8784 62.8198 74.8784C66.3598 74.8784 68.4298 76.4384 68.4298 80.5184V92.0984H64.7298V82.2984C64.7298 79.6384 64.5698 77.7884 61.6798 77.7884C59.1798 77.7884 58.1098 79.4384 58.1098 82.2684V92.0984H54.4098V81.3284C54.4098 79.0284 53.6998 77.7884 51.4598 77.7884C49.5498 77.7884 47.7898 79.3484 47.7898 82.1384V92.0984H44.0898V75.3284H44.1098Z" fill="#00447A"/>
<path d="M75.5516 84.6687C75.5516 87.2987 76.9816 89.6287 80.0616 89.6287C82.2016 89.6287 83.5016 88.6887 84.1516 86.8387H87.6516C86.8416 90.5087 83.7316 92.5487 80.0616 92.5487C74.8116 92.5487 71.8516 88.8787 71.8516 83.7287C71.8516 78.9587 74.9616 74.8687 79.9616 74.8687C85.2516 74.8687 88.4916 79.6387 87.8816 84.6687H75.5516ZM84.1716 82.2387C84.0416 79.9087 82.4516 77.7987 79.9516 77.7987C77.4516 77.7987 75.6416 79.7487 75.5416 82.2387H84.1716Z" fill="#00447A"/>
<path d="M106.819 92.0985H103.319V89.8285H103.259C102.289 91.7385 100.179 92.5485 98.0688 92.5485C92.7788 92.5485 90.2188 88.6285 90.2188 83.5985C90.2188 77.5285 93.8188 74.8685 97.4888 74.8685C99.5988 74.8685 101.929 75.6485 103.069 77.4985H103.139V68.9385H106.839V92.0985H106.819ZM98.5488 89.6285C101.859 89.6285 103.249 86.6085 103.249 83.6885C103.249 79.9885 101.469 77.7885 98.6087 77.7885C95.1387 77.7885 93.9088 80.8685 93.9088 83.8885C93.9088 86.9085 95.3388 89.6285 98.5488 89.6285Z" fill="#00447A"/>
<path d="M125.894 92.0986H122.264V89.7586H122.194C121.284 91.4486 119.274 92.5486 117.424 92.5486C113.044 92.5486 111.164 90.3386 111.164 85.9686V75.3286H114.864V85.6086C114.864 88.5586 116.064 89.6286 118.074 89.6286C121.154 89.6286 122.194 87.6486 122.194 85.0586V75.3286H125.894V92.0986Z" fill="#00447A"/>
<path d="M141.429 80.9387C141.139 78.8987 139.649 77.7887 137.599 77.7887C135.689 77.7887 132.989 78.7887 132.989 83.8887C132.989 86.6787 134.219 89.6287 137.429 89.6287C139.569 89.6287 141.059 88.1987 141.419 85.7987H145.119C144.439 90.1487 141.749 92.5487 137.429 92.5487C132.169 92.5487 129.289 88.8187 129.289 83.8887C129.289 78.9587 132.049 74.8687 137.559 74.8687C141.449 74.8687 144.759 76.8187 145.119 80.9387H141.419H141.429Z" fill="#00447A"/>
<path d="M1.21094 7.02832H17.2009V10.5283H5.26094V16.5983H15.7409V19.9083H5.26094V30.1883H1.21094V7.02832Z" fill="#00447A"/>
<path d="M34.6497 30.1885H31.0197V27.8485H30.9597C30.0497 29.5385 28.0397 30.6385 26.1897 30.6385C21.8097 30.6385 19.9297 28.4285 19.9297 24.0585V13.4185H23.6297V23.6985C23.6297 26.6485 24.8297 27.7185 26.8397 27.7185C29.9197 27.7185 30.9597 25.7385 30.9597 23.1485V13.4185H34.6597V30.1885H34.6497Z" fill="#00447A"/>
<path d="M38.5413 13.4188H42.0413V15.8888L42.1012 15.9488C43.2012 14.0988 45.1213 12.9688 47.3213 12.9688C50.9513 12.9688 53.2612 14.9188 53.2612 18.6788V30.1987H49.5613V19.6587C49.5013 17.0287 48.4613 15.8988 46.2812 15.8988C43.8212 15.8988 42.2313 17.8488 42.2313 20.3088V30.1987H38.5312V13.4188H38.5413Z" fill="#00447A"/>
<path d="M72.9594 30.1883H69.4594V27.9183H69.3994C68.4294 29.8283 66.3194 30.6383 64.2094 30.6383C58.9194 30.6383 56.3594 26.7183 56.3594 21.6883C56.3594 15.6183 59.9594 12.9583 63.6294 12.9583C65.7394 12.9583 68.0694 13.7383 69.2094 15.5883H69.2794V7.02832H72.9794V30.1883H72.9594ZM64.6894 27.7283C67.9994 27.7283 69.3894 24.7083 69.3894 21.7883C69.3894 18.0883 67.6094 15.8883 64.7494 15.8883C61.2794 15.8883 60.0494 18.9683 60.0494 21.9883C60.0494 25.0083 61.4794 27.7283 64.6894 27.7283Z" fill="#00447A"/>
<path d="M91.0281 26.4585C91.0281 27.3685 91.2181 27.7185 91.9081 27.7185C92.1381 27.7185 92.4281 27.7185 92.8181 27.6585V30.2185C92.2681 30.4185 91.0981 30.6385 90.4781 30.6385C88.9881 30.6385 87.9181 30.1185 87.6281 28.5985C86.1681 30.0285 83.7981 30.6385 81.8181 30.6385C78.7981 30.6385 76.0781 29.0185 76.0781 25.7385C76.0781 21.5585 79.4181 20.8685 82.5381 20.5185C85.1981 20.0285 87.5681 20.3185 87.5681 18.1485C87.5681 16.2385 85.5881 15.8785 84.0981 15.8785C82.0181 15.8785 80.5581 16.7185 80.3981 18.5385H76.6981C76.9581 14.2285 80.6281 12.9585 84.3181 12.9585C87.5981 12.9585 91.0281 14.2885 91.0281 17.8285V26.4585ZM87.3281 21.7885C86.1881 22.5385 84.4081 22.4985 82.7881 22.7985C81.1981 23.0585 79.7681 23.6385 79.7681 25.5885C79.7681 27.2385 81.8781 27.7285 83.1781 27.7285C84.7981 27.7285 87.3281 26.8885 87.3281 24.5485V21.7885Z" fill="#00447A"/>
<path d="M106.339 19.0285C106.049 16.9885 104.559 15.8785 102.509 15.8785C100.599 15.8785 97.8992 16.8785 97.8992 21.9785C97.8992 24.7685 99.1292 27.7185 102.339 27.7185C104.479 27.7185 105.969 26.2885 106.329 23.8885H110.029C109.349 28.2385 106.659 30.6385 102.339 30.6385C97.0792 30.6385 94.1992 26.9085 94.1992 21.9785C94.1992 17.0485 96.9592 12.9585 102.469 12.9585C106.359 12.9585 109.669 14.9085 110.029 19.0285H106.329H106.339Z" fill="#00447A"/>
<path d="M113.16 7.02832H116.86V10.5283H113.16V7.02832ZM113.16 13.4183H116.86V30.1883H113.16V13.4183Z" fill="#00447A"/>
<path d="M120.102 21.7885C120.102 16.6685 123.182 12.9685 128.572 12.9685C133.962 12.9685 137.042 16.6685 137.042 21.7885C137.042 26.9085 133.962 30.6485 128.572 30.6485C123.182 30.6485 120.102 26.9485 120.102 21.7885ZM133.332 21.7885C133.332 18.8985 131.872 15.8885 128.562 15.8885C125.252 15.8885 123.792 18.9085 123.792 21.7885C123.792 24.6685 125.252 27.7285 128.562 27.7285C131.872 27.7285 133.332 24.7085 133.332 21.7885ZM129.022 6.47852H133.402L128.792 11.1185H126.102L129.022 6.47852Z" fill="#00447A"/>
<path d="M140.112 13.4188H143.612V15.8888L143.672 15.9488C144.772 14.0988 146.692 12.9688 148.892 12.9688C152.522 12.9688 154.832 14.9188 154.832 18.6788V30.1987H151.132V19.6587C151.062 17.0287 150.032 15.8988 147.852 15.8988C145.392 15.8988 143.802 17.8488 143.802 20.3088V30.1987H140.102V13.4188H140.112Z" fill="#00447A"/>
<path d="M1.21094 38.0684H17.8809V41.5684H5.26094V47.6384H16.9409V50.9484H5.26094V57.7284H18.1109V61.2284H1.21094V38.0684Z" fill="#00447A"/>
<path d="M36.7914 61.2284H33.2914V58.9584H33.2314C32.2614 60.8684 30.1514 61.6784 28.0414 61.6784C22.7514 61.6784 20.1914 57.7584 20.1914 52.7284C20.1914 46.6584 23.7914 43.9984 27.4614 43.9984C29.5714 43.9984 31.9014 44.7784 33.0414 46.6284H33.1114V38.0684H36.8114V61.2284H36.7914ZM28.5214 58.7584C31.8314 58.7584 33.2214 55.7384 33.2214 52.8184C33.2214 49.1184 31.4414 46.9184 28.5814 46.9184C25.1114 46.9184 23.8814 49.9984 23.8814 53.0184C23.8814 56.0384 25.3114 58.7584 28.5214 58.7584Z" fill="#00447A"/>
<path d="M55.4097 61.2285H51.7797V58.8885H51.7097C50.7997 60.5785 48.7897 61.6785 46.9397 61.6785C42.5597 61.6785 40.6797 59.4685 40.6797 55.0985V44.4585H44.3797V54.7385C44.3797 57.6885 45.5797 58.7585 47.5897 58.7585C50.6697 58.7585 51.7097 56.7785 51.7097 54.1885V44.4585H55.4097V61.2285Z" fill="#00447A"/>
<path d="M70.4994 50.0685C70.2094 48.0285 68.7194 46.9185 66.6694 46.9185C64.7594 46.9185 62.0594 47.9185 62.0594 53.0185C62.0594 55.8085 63.2894 58.7585 66.4994 58.7585C68.6394 58.7585 70.1294 57.3285 70.4894 54.9285H74.1894C73.5094 59.2785 70.8194 61.6785 66.4994 61.6785C61.2394 61.6785 58.3594 57.9485 58.3594 53.0185C58.3594 48.0885 61.1194 43.9985 66.6294 43.9985C70.5194 43.9985 73.8294 45.9485 74.1894 50.0685H70.4894H70.4994Z" fill="#00447A"/>
<path d="M91.1297 57.4985C91.1297 58.4085 91.3197 58.7585 92.0097 58.7585C92.2397 58.7585 92.5297 58.7585 92.9197 58.6985V61.2585C92.3697 61.4585 91.1997 61.6785 90.5797 61.6785C89.0897 61.6785 88.0197 61.1585 87.7297 59.6385C86.2697 61.0685 83.8997 61.6785 81.9197 61.6785C78.8997 61.6785 76.1797 60.0585 76.1797 56.7785C76.1797 52.5985 79.5197 51.9085 82.6397 51.5585C85.2997 51.0685 87.6697 51.3685 87.6697 49.1885C87.6697 47.2785 85.6897 46.9185 84.1997 46.9185C82.1197 46.9185 80.6597 47.7585 80.4997 49.5785H76.7997C77.0597 45.2685 80.7297 43.9985 84.4197 43.9985C87.6997 43.9985 91.1297 45.3285 91.1297 48.8685V57.4985ZM87.4297 52.8285C86.2897 53.5785 84.5097 53.5385 82.8897 53.8385C81.2997 54.0985 79.8697 54.6785 79.8697 56.6285C79.8697 58.2785 81.9797 58.7685 83.2797 58.7685C84.8997 58.7685 87.4297 57.9285 87.4297 55.5885V52.8285Z" fill="#00447A"/>
<path d="M106.312 50.0685C106.022 48.0285 104.532 46.9185 102.482 46.9185C100.572 46.9185 97.8719 47.9185 97.8719 53.0185C97.8719 55.8085 99.1019 58.7585 102.312 58.7585C104.452 58.7585 105.942 57.3285 106.302 54.9285H110.002C109.322 59.2785 106.632 61.6785 102.312 61.6785C97.0519 61.6785 94.1719 57.9485 94.1719 53.0185C94.1719 48.0885 96.9319 43.9985 102.442 43.9985C106.332 43.9985 109.642 45.9485 110.002 50.0685H106.302H106.312Z" fill="#00447A"/>
<path d="M113 38.0684H116.7V41.5684H113V38.0684ZM113 44.4584H116.7V61.2284H113V44.4584Z" fill="#00447A"/>
<path d="M119.812 52.8283C119.812 47.7083 122.893 44.0083 128.283 44.0083C133.673 44.0083 136.753 47.7083 136.753 52.8283C136.753 57.9483 133.673 61.6883 128.283 61.6883C122.893 61.6883 119.812 57.9883 119.812 52.8283ZM133.042 52.8283C133.042 49.9383 131.582 46.9283 128.272 46.9283C124.962 46.9283 123.503 49.9483 123.503 52.8283C123.503 55.7083 124.962 58.7683 128.272 58.7683C131.582 58.7683 133.042 55.7483 133.042 52.8283Z" fill="#00447A"/>
<path d="M139.69 44.4583H143.19V46.9283L143.25 46.9883C144.35 45.1383 146.27 44.0083 148.47 44.0083C152.1 44.0083 154.41 45.9583 154.41 49.7183V61.2383H150.71V50.6983C150.65 48.0683 149.61 46.9383 147.43 46.9383C144.97 46.9383 143.38 48.8883 143.38 51.3483V61.2383H139.68V44.4683L139.69 44.4583Z" fill="#00447A"/>
<path d="M172.231 57.4985C172.231 58.4085 172.421 58.7585 173.111 58.7585C173.341 58.7585 173.631 58.7585 174.021 58.6985V61.2585C173.471 61.4585 172.301 61.6785 171.681 61.6785C170.191 61.6785 169.121 61.1585 168.831 59.6385C167.371 61.0685 165.001 61.6785 163.021 61.6785C160.001 61.6785 157.281 60.0585 157.281 56.7785C157.281 52.5985 160.621 51.9085 163.741 51.5585C166.401 51.0685 168.771 51.3685 168.771 49.1885C168.771 47.2785 166.791 46.9185 165.301 46.9185C163.221 46.9185 161.761 47.7585 161.601 49.5785H157.901C158.161 45.2685 161.831 43.9985 165.521 43.9985C168.801 43.9985 172.231 45.3285 172.231 48.8685V57.4985ZM168.531 52.8285C167.391 53.5785 165.611 53.5385 163.991 53.8385C162.401 54.0985 160.971 54.6785 160.971 56.6285C160.971 58.2785 163.081 58.7685 164.381 58.7685C166.001 58.7685 168.531 57.9285 168.531 55.5885V52.8285Z" fill="#00447A"/>
<path d="M176.191 38.0684H179.891V61.2284H176.191V38.0684Z" fill="#00447A"/>
<path d="M27.4509 112.068H4.17094C2.53617 112.068 1.21094 113.394 1.21094 115.028V115.378C1.21094 117.013 2.53617 118.338 4.17094 118.338H27.4509C29.0857 118.338 30.4109 117.013 30.4109 115.378V115.028C30.4109 113.394 29.0857 112.068 27.4509 112.068Z" fill="#97BF0D"/>
<path d="M238.994 97.1583L256.744 85.6383C258.804 84.2983 258.804 81.2883 256.744 79.9583L205.534 46.6983C202.814 44.9383 199.234 46.8883 199.234 50.1183V72.2683C199.234 73.5583 199.884 74.7583 200.964 75.4583L234.374 97.1583C235.784 98.0683 237.594 98.0683 239.004 97.1583H238.994Z" fill="#00447A"/>
<path d="M199.221 91.698V112.808C199.221 117.188 204.081 119.828 207.751 117.438L224.571 106.508C226.221 105.438 226.221 103.018 224.571 101.948L204.421 88.858C202.181 87.398 199.211 89.008 199.211 91.688L199.221 91.698Z" fill="#00447A"/>
<path d="M257.492 37.9483V68.1383C257.492 68.8583 257.852 69.5183 258.452 69.9083L268.552 76.4683C269.252 76.9183 270.152 76.9183 270.852 76.4683L288.882 64.7583C292.612 62.3283 292.612 56.8683 288.882 54.4383L260.752 36.1683C259.342 35.2583 257.492 36.2683 257.492 37.9383V37.9483Z" fill="#00447A"/>
<path d="M229.07 19.7883V49.0183C229.07 50.1483 229.64 51.2083 230.59 51.8283L244.62 60.9383C246.13 61.9183 248.13 60.8383 248.13 59.0283V29.2183C248.13 28.4483 247.74 27.7283 247.1 27.3083L232.59 17.8783C231.08 16.8983 229.08 17.9783 229.08 19.7883H229.07Z" fill="#83B81A"/>
<path d="M218.981 9.04824L207.601 1.65824C203.991 -0.691762 199.211 1.90824 199.211 6.20824V29.9182C199.211 30.8682 199.691 31.7482 200.481 32.2582L216.631 42.7482C217.961 43.6082 219.711 42.6582 219.711 41.0782V10.4182C219.711 9.86824 219.431 9.35824 218.971 9.05824L218.981 9.04824Z" fill="#00447A"/>
</svg>
